<svg width="128" height="128" viewBox="0 0 128 128" fill="none" xmlns="http://www.w3.org/2000/svg">
  <defs>
    <linearGradient id="g" x1="18" y1="12" x2="116" y2="118" gradientUnits="userSpaceOnUse">
      <stop stop-color="#6D2CCF" />
      <stop offset="0.55" stop-color="#A98BFF" />
      <stop offset="1" stop-color="#2E1550" />
    </linearGradient>
    <radialGradient id="r" cx="0" cy="0" r="1" gradientUnits="userSpaceOnUse" gradientTransform="translate(44 34) rotate(49) scale(88)">
      <stop stop-color="#FFFFFF" stop-opacity="0.85" />
      <stop offset="1" stop-color="#FFFFFF" stop-opacity="0" />
    </radialGradient>
  </defs>
  <rect x="8" y="8" width="112" height="112" rx="28" fill="url(#g)" />
  <rect x="8" y="8" width="112" height="112" rx="28" fill="url(#r)" />
  <path d="M40 52.5c0-5.2 4.2-9.5 9.5-9.5h29c5.2 0 9.5 4.2 9.5 9.5v23c0 5.2-4.2 9.5-9.5 9.5h-29c-5.2 0-9.5-4.2-9.5-9.5v-23Z" stroke="#FFFFFF" stroke-width="5" stroke-opacity="0.92" />
  <path d="M49 63h30" stroke="#FFFFFF" stroke-width="5" stroke-linecap="round" stroke-opacity="0.92" />
  <path d="M49 73h18" stroke="#FFFFFF" stroke-width="5" stroke-linecap="round" stroke-opacity="0.92" />
  <path d="M34 96c7.5-8.5 17.9-13.5 30-13.5S86.5 87.5 94 96" stroke="#FFFFFF" stroke-width="5" stroke-linecap="round" stroke-opacity="0.65" />
</svg>
